<mxfile host="Electron" agent="Mozilla/5.0 (Windows NT 10.0; Win64; x64) AppleWebKit/537.36 (KHTML, like Gecko) draw.io/24.7.17 Chrome/128.0.6613.36 Electron/32.0.1 Safari/537.36" version="24.7.17">
  <diagram name="Page-1" id="6_IOjAEbK8ceWNz-3OvI">
    <mxGraphModel dx="1036" dy="590" grid="1" gridSize="10" guides="1" tooltips="1" connect="1" arrows="1" fold="1" page="1" pageScale="1" pageWidth="850" pageHeight="1100" math="0" shadow="0">
      <root>
        <mxCell id="0" />
        <mxCell id="1" parent="0" />
        <mxCell id="mmdgpUVu38pJq8z1JTDm-1" value="Activity diagram for update jewelry items" style="swimlane;childLayout=stackLayout;resizeParent=1;resizeParentMax=0;startSize=20;html=1;" parent="1" vertex="1">
          <mxGeometry x="160.00000000000045" y="40" width="550" height="760" as="geometry" />
        </mxCell>
        <mxCell id="mmdgpUVu38pJq8z1JTDm-2" value="Admin" style="swimlane;startSize=20;html=1;" parent="mmdgpUVu38pJq8z1JTDm-1" vertex="1">
          <mxGeometry y="20" width="280" height="740" as="geometry" />
        </mxCell>
        <mxCell id="mmdgpUVu38pJq8z1JTDm-3" value="" style="strokeWidth=2;html=1;shape=mxgraph.flowchart.start_2;whiteSpace=wrap;fillColor=#000000;" parent="mmdgpUVu38pJq8z1JTDm-2" vertex="1">
          <mxGeometry x="119.99999999999955" y="40" width="30" height="30" as="geometry" />
        </mxCell>
        <mxCell id="mmdgpUVu38pJq8z1JTDm-4" value="Select item to update" style="rounded=1;whiteSpace=wrap;html=1;" parent="mmdgpUVu38pJq8z1JTDm-2" vertex="1">
          <mxGeometry x="75" y="100" width="120" height="50" as="geometry" />
        </mxCell>
        <mxCell id="mmdgpUVu38pJq8z1JTDm-5" value="Modify details" style="rounded=1;whiteSpace=wrap;html=1;" parent="mmdgpUVu38pJq8z1JTDm-2" vertex="1">
          <mxGeometry x="75" y="180" width="120" height="50" as="geometry" />
        </mxCell>
        <mxCell id="mmdgpUVu38pJq8z1JTDm-7" value="Check inventory status" style="rounded=1;whiteSpace=wrap;html=1;" parent="mmdgpUVu38pJq8z1JTDm-2" vertex="1">
          <mxGeometry x="80" y="390" width="120" height="50" as="geometry" />
        </mxCell>
        <mxCell id="mmdgpUVu38pJq8z1JTDm-8" value="" style="endArrow=classic;html=1;rounded=0;exitX=0.5;exitY=1;exitDx=0;exitDy=0;exitPerimeter=0;" parent="mmdgpUVu38pJq8z1JTDm-2" source="mmdgpUVu38pJq8z1JTDm-3" target="mmdgpUVu38pJq8z1JTDm-4" edge="1">
          <mxGeometry width="50" height="50" relative="1" as="geometry">
            <mxPoint x="189.99999999999955" y="360" as="sourcePoint" />
            <mxPoint x="239.99999999999955" y="310" as="targetPoint" />
          </mxGeometry>
        </mxCell>
        <mxCell id="mmdgpUVu38pJq8z1JTDm-9" value="" style="endArrow=classic;html=1;rounded=0;exitX=0.5;exitY=1;exitDx=0;exitDy=0;" parent="mmdgpUVu38pJq8z1JTDm-2" source="mmdgpUVu38pJq8z1JTDm-4" target="mmdgpUVu38pJq8z1JTDm-5" edge="1">
          <mxGeometry width="50" height="50" relative="1" as="geometry">
            <mxPoint x="179.99999999999955" y="330" as="sourcePoint" />
            <mxPoint x="229.99999999999955" y="280" as="targetPoint" />
          </mxGeometry>
        </mxCell>
        <mxCell id="mmdgpUVu38pJq8z1JTDm-10" value="System" style="swimlane;startSize=20;html=1;" parent="mmdgpUVu38pJq8z1JTDm-1" vertex="1">
          <mxGeometry x="280" y="20" width="270" height="740" as="geometry" />
        </mxCell>
        <mxCell id="mmdgpUVu38pJq8z1JTDm-11" value="Validate input" style="rounded=1;whiteSpace=wrap;html=1;" parent="mmdgpUVu38pJq8z1JTDm-10" vertex="1">
          <mxGeometry x="75" y="180" width="120" height="50" as="geometry" />
        </mxCell>
        <mxCell id="mmdgpUVu38pJq8z1JTDm-12" value="Update inventory" style="rounded=1;whiteSpace=wrap;html=1;" parent="mmdgpUVu38pJq8z1JTDm-10" vertex="1">
          <mxGeometry x="80" y="290" width="120" height="50" as="geometry" />
        </mxCell>
        <mxCell id="mmdgpUVu38pJq8z1JTDm-13" value="Retrieve inventory data" style="rounded=1;whiteSpace=wrap;html=1;" parent="mmdgpUVu38pJq8z1JTDm-10" vertex="1">
          <mxGeometry x="80" y="390" width="120" height="50" as="geometry" />
        </mxCell>
        <mxCell id="mmdgpUVu38pJq8z1JTDm-14" value="Display item details" style="rounded=1;whiteSpace=wrap;html=1;" parent="mmdgpUVu38pJq8z1JTDm-10" vertex="1">
          <mxGeometry x="80" y="480" width="120" height="50" as="geometry" />
        </mxCell>
        <mxCell id="mmdgpUVu38pJq8z1JTDm-15" value="" style="ellipse;html=1;shape=endState;fillColor=#000000;strokeColor=#000000;" parent="mmdgpUVu38pJq8z1JTDm-10" vertex="1">
          <mxGeometry x="125" y="620" width="30" height="30" as="geometry" />
        </mxCell>
        <mxCell id="mmdgpUVu38pJq8z1JTDm-16" value="" style="endArrow=classic;html=1;rounded=0;exitX=0.5;exitY=1;exitDx=0;exitDy=0;entryX=0.5;entryY=0;entryDx=0;entryDy=0;" parent="mmdgpUVu38pJq8z1JTDm-10" source="mmdgpUVu38pJq8z1JTDm-13" target="mmdgpUVu38pJq8z1JTDm-14" edge="1">
          <mxGeometry width="50" height="50" relative="1" as="geometry">
            <mxPoint x="-30.000000000000455" y="450" as="sourcePoint" />
            <mxPoint x="19.999999999999545" y="400" as="targetPoint" />
          </mxGeometry>
        </mxCell>
        <mxCell id="mmdgpUVu38pJq8z1JTDm-17" value="" style="endArrow=classic;html=1;rounded=0;exitX=0.5;exitY=1;exitDx=0;exitDy=0;entryX=0.5;entryY=0;entryDx=0;entryDy=0;" parent="mmdgpUVu38pJq8z1JTDm-10" source="mmdgpUVu38pJq8z1JTDm-14" target="mmdgpUVu38pJq8z1JTDm-15" edge="1">
          <mxGeometry width="50" height="50" relative="1" as="geometry">
            <mxPoint x="-30.000000000000455" y="520" as="sourcePoint" />
            <mxPoint x="19.999999999999545" y="470" as="targetPoint" />
          </mxGeometry>
        </mxCell>
        <mxCell id="mmdgpUVu38pJq8z1JTDm-19" value="" style="endArrow=classic;html=1;rounded=0;exitX=0.542;exitY=1.027;exitDx=0;exitDy=0;entryX=0.5;entryY=0;entryDx=0;entryDy=0;exitPerimeter=0;" parent="mmdgpUVu38pJq8z1JTDm-10" source="mmdgpUVu38pJq8z1JTDm-11" target="mmdgpUVu38pJq8z1JTDm-12" edge="1">
          <mxGeometry width="50" height="50" relative="1" as="geometry">
            <mxPoint x="-100.00000000000045" y="330" as="sourcePoint" />
            <mxPoint x="-50.000000000000455" y="280" as="targetPoint" />
            <Array as="points">
              <mxPoint x="139.99999999999955" y="270" />
            </Array>
          </mxGeometry>
        </mxCell>
        <mxCell id="mmdgpUVu38pJq8z1JTDm-18" value="" style="endArrow=classic;html=1;rounded=0;exitX=1;exitY=0.5;exitDx=0;exitDy=0;entryX=0;entryY=0.5;entryDx=0;entryDy=0;" parent="mmdgpUVu38pJq8z1JTDm-1" source="mmdgpUVu38pJq8z1JTDm-5" target="mmdgpUVu38pJq8z1JTDm-11" edge="1">
          <mxGeometry width="50" height="50" relative="1" as="geometry">
            <mxPoint x="179.99999999999955" y="350" as="sourcePoint" />
            <mxPoint x="229.99999999999955" y="300" as="targetPoint" />
          </mxGeometry>
        </mxCell>
        <mxCell id="mmdgpUVu38pJq8z1JTDm-21" value="" style="endArrow=classic;html=1;rounded=0;exitX=0.447;exitY=0.944;exitDx=0;exitDy=0;exitPerimeter=0;entryX=0.5;entryY=0;entryDx=0;entryDy=0;" parent="mmdgpUVu38pJq8z1JTDm-1" source="mmdgpUVu38pJq8z1JTDm-12" target="mmdgpUVu38pJq8z1JTDm-7" edge="1">
          <mxGeometry width="50" height="50" relative="1" as="geometry">
            <mxPoint x="199.99999999999955" y="340" as="sourcePoint" />
            <mxPoint x="249.99999999999955" y="290" as="targetPoint" />
            <Array as="points">
              <mxPoint x="413.99999999999955" y="390" />
              <mxPoint x="139.99999999999955" y="390" />
            </Array>
          </mxGeometry>
        </mxCell>
        <mxCell id="mmdgpUVu38pJq8z1JTDm-22" value="" style="endArrow=classic;html=1;rounded=0;exitX=1;exitY=0.5;exitDx=0;exitDy=0;entryX=0;entryY=0.5;entryDx=0;entryDy=0;" parent="mmdgpUVu38pJq8z1JTDm-1" source="mmdgpUVu38pJq8z1JTDm-7" target="mmdgpUVu38pJq8z1JTDm-13" edge="1">
          <mxGeometry width="50" height="50" relative="1" as="geometry">
            <mxPoint x="199.99999999999955" y="410" as="sourcePoint" />
            <mxPoint x="249.99999999999955" y="360" as="targetPoint" />
          </mxGeometry>
        </mxCell>
      </root>
    </mxGraphModel>
  </diagram>
</mxfile>
